<?xml version="1.0" encoding="utf-8"?>
<svg width="728px" height="477px" viewBox="0 0 728 477" version="1.1" xmlns:xlink="http://www.w3.org/1999/xlink" xmlns="http://www.w3.org/2000/svg">
  <defs>
    <path d="M728 0L728 0L728 477L0 477L0 0L728 0Z" id="path_1" />
    <clipPath id="clip_1">
      <use xlink:href="#path_1" clip-rule="evenodd" fill-rule="evenodd" />
    </clipPath>
  </defs>
  <g id="unva">
    <path d="M728 0L728 0L728 477L0 477L0 0L728 0Z" id="unva" fill="none" stroke="none" />
    <g id="un--a" clip-path="url(#clip_1)">
      <g id="un--a">
        <path d="M93.9 347.1Q71.7 347.1 55.2 338.25Q38.7 329.4 29.7 313.8Q20.7 298.2 20.7 278.7L20.7 190.5L55.2 190.5L55.2 278.4Q55.2 290.1 60.45 298.95Q65.7 307.8 74.55 312.75Q83.4 317.7 93.9 317.7Q104.4 317.7 113.25 312.75Q122.1 307.8 127.35 298.95Q132.6 290.1 132.6 278.4L132.6 190.5L167.1 190.5L167.1 278.7Q167.1 298.2 158.1 313.8Q149.1 329.4 132.6 338.25Q116.1 347.1 93.9 347.1ZM208.5 343.5L208.5 255.3Q208.5 235.5 217.5 220.05Q226.5 204.6 243 195.75Q259.5 186.9 281.7 186.9Q303.9 186.9 320.25 195.75Q336.6 204.6 345.6 220.05Q354.6 235.5 354.6 255.3L354.6 343.5L320.4 343.5L320.4 255.6Q320.4 243.9 315 235.05Q309.6 226.2 300.75 221.25Q291.9 216.3 281.4 216.3Q271.2 216.3 262.35 221.25Q253.5 226.2 248.25 235.05Q243 243.9 243 255.6L243 343.5L208.5 343.5ZM617.1 347.1Q595.2 347.1 579.3 336.3Q563.4 325.5 554.85 307.35Q546.3 289.2 546.3 267.3Q546.3 244.5 556.05 226.35Q565.8 208.2 583.95 197.55Q602.1 186.9 627.3 186.9Q652.2 186.9 669.75 197.55Q687.3 208.2 696.75 226.35Q706.2 244.5 706.2 266.7L706.2 343.5L671.7 343.5L671.7 315L671.1 315Q666.6 323.4 659.4 330.75Q652.2 338.1 641.7 342.6Q631.2 347.1 617.1 347.1ZM626.4 317.7Q639.9 317.7 649.95 310.95Q660 304.2 665.55 292.65Q671.1 281.1 671.1 266.7Q671.1 252.3 665.7 241.05Q660.3 229.8 650.4 223.05Q640.5 216.3 626.7 216.3Q612.3 216.3 602.1 223.05Q591.9 229.8 586.5 241.2Q581.1 252.6 581.1 267Q581.1 281.1 586.5 292.65Q591.9 304.2 601.95 310.95Q612 317.7 626.4 317.7Z" />
      </g>
    </g>
    <path d="M392 202L509 272.851L392 331" id="Vector" fill="none" fill-rule="evenodd" stroke="#000000" stroke-width="32" stroke-linejoin="round" clip-path="url(#clip_1)" />
  </g>
</svg>